<?xml version="1.0" encoding="UTF-8"?>
<svg id="b" data-name="Layer 2" xmlns="http://www.w3.org/2000/svg" viewBox="0 0 646.35 95.63">
  <defs>
    <style>
      .d {
        fill: #efeeda;
      }
    </style>
  </defs>
  <g id="c" data-name="Layer 1">
    <g>
      <path class="d" d="M20.34,41L8.74,12.18c-.39-.11-.43.1-.65.25-.89.61-6.75,6.48-7.36,7.36-1.2,1.75-.63,2.9,0,4.65,2.19,6.1,5.35,11.93,7.47,18.07L.36,61.51c-.56,1.39-.49,2.5.38,3.74.88,1.26,5.92,6.21,7.23,7.23.2.16.31.47.64.39l11.18-26.79c.56-1.64.68-3.36.55-5.08Z"/>
      <path class="d" d="M84.42,19.79c-.81-1.19-5.98-6.25-7.23-7.23-.2-.16-.31-.47-.64-.39l-11.17,26.79c-.86,2.22-.74,4.68-.08,6.92l11.12,26.97c.39.11.43-.1.65-.25.89-.61,6.75-6.48,7.36-7.36.8-1.16.92-2.46.38-3.74l-7.85-18.99c2.12-6.15,5.28-11.97,7.47-18.07.63-1.76,1.2-2.91,0-4.65Z"/>
      <path class="d" d="M39.23,65.26l-27.13,11.23c2.43,2.21,4.94,5.66,7.48,7.62,1.21.94,2.1,1.12,3.63.77l19.49-7.9,19.24,7.9c.76.22,1.58.21,2.34,0,1.97-.52,6.88-6.84,8.77-8.4l-27.13-11.23c-2.67-.8-4.02-.8-6.69,0Z"/>
      <path class="d" d="M45.92,19.78l27.13-11.22c-1.89-1.55-6.8-7.87-8.77-8.4-.96-.25-2-.19-2.92.19l-18.67,7.68c-1.81-.47-3.54-1.24-5.27-1.93-4.24-1.67-9.62-4.64-13.81-5.82-1.68-.47-2.64-.41-4.02.65-2.54,1.96-5.05,5.41-7.48,7.62l27.13,11.22c2.17.67,4.52.67,6.69,0Z"/>
      <path class="d" d="M141.16,7.52c-9.78,0-18.08,3.41-24.9,10.23-6.75,6.76-10.13,15.02-10.13,24.8s3.38,18.08,10.13,24.9c6.82,6.76,15.12,10.13,24.9,10.13s18.05-3.38,24.8-10.13c6.82-6.82,10.23-15.12,10.23-24.9s-3.41-18.05-10.23-24.8c-6.76-6.82-15.02-10.23-24.8-10.23ZM158.15,59.93c-4.57,4.57-10.23,6.85-16.98,6.85s-12.39-2.28-17.08-6.85c-4.57-4.7-6.85-10.49-6.85-17.37s2.28-12.71,6.85-17.27c4.63-4.63,10.33-6.95,17.08-6.95s12.42,2.32,16.98,6.95c4.63,4.57,6.95,10.33,6.95,17.27s-2.32,12.74-6.95,17.37Z"/>
      <path class="d" d="M210.55,26.82c-7.33,0-12.96,2.74-16.89,8.2v-6.95h-10.42v67.55h10.42v-26.15c3.99,5.4,9.62,8.11,16.89,8.11,6.63,0,12.29-2.44,16.98-7.33,4.7-4.89,7.04-10.9,7.04-18.05s-2.35-13.06-7.04-17.95c-4.76-4.95-10.42-7.43-16.98-7.43ZM219.81,63.3c-2.9,2.89-6.53,4.34-10.9,4.34s-8.01-1.45-10.91-4.34c-2.89-3.02-4.34-6.72-4.34-11.1s1.45-8.11,4.34-11c2.9-2.96,6.53-4.44,10.91-4.44s8.01,1.48,10.9,4.44c2.9,2.89,4.34,6.56,4.34,11s-1.45,8.14-4.34,11.1Z"/>
      <path class="d" d="M264.39,26.82c-7.53,0-13.64,2.45-18.34,7.33-4.76,4.89-7.14,10.9-7.14,18.05s2.41,13.41,7.24,18.24c4.89,4.76,11.23,7.14,19.01,7.14,9.39,0,16.44-3.51,21.13-10.52l-8.59-5.02c-2.83,3.99-6.98,5.98-12.45,5.98-4.05,0-7.45-1-10.18-2.99-2.74-1.99-4.49-4.79-5.26-8.4h38.41c.26-1.61.39-3.06.39-4.34,0-7.08-2.28-13.09-6.85-18.05-4.57-4.95-10.36-7.43-17.37-7.43ZM249.73,48.15c.71-3.67,2.35-6.56,4.92-8.69,2.57-2.12,5.79-3.18,9.65-3.18,3.54,0,6.55,1.03,9.02,3.09,2.48,2.06,4.07,4.99,4.78,8.78h-28.37Z"/>
      <path class="d" d="M320.75,26.82c-6.76,0-11.74,2.48-14.96,7.43v-6.18h-10.42v48.25h10.42v-25.86c0-4.57,1.09-8.03,3.28-10.37,2.19-2.35,5.18-3.52,8.97-3.52,3.34,0,5.98.96,7.91,2.89,1.93,1.93,2.9,4.7,2.9,8.3v28.56h10.42v-29.63c0-6.11-1.69-10.95-5.07-14.52-3.38-3.57-7.87-5.36-13.46-5.36Z"/>
      <polygon class="d" points="381.06 42.55 360.7 8.78 348.74 8.78 348.74 76.33 359.83 76.33 359.83 28.08 380.39 62.14 381.74 62.14 402.29 28.18 402.29 76.33 413.39 76.33 413.39 8.78 401.52 8.78 381.06 42.55"/>
      <path class="d" d="M446.59,26.82c-7.14,0-13.16,2.45-18.05,7.33-4.95,4.95-7.43,10.97-7.43,18.05s2.48,13.09,7.43,18.05c4.89,4.89,10.9,7.33,18.05,7.33s13.16-2.44,18.05-7.33c4.95-4.95,7.43-10.97,7.43-18.05s-2.48-13.09-7.43-18.05c-4.89-4.89-10.9-7.33-18.05-7.33ZM457.3,63.11c-2.9,2.9-6.47,4.34-10.71,4.34s-7.82-1.45-10.71-4.34c-2.9-2.89-4.34-6.53-4.34-10.9s1.45-8.01,4.34-10.9,6.47-4.34,10.71-4.34,7.82,1.45,10.71,4.34,4.34,6.53,4.34,10.9-1.45,8.01-4.34,10.9Z"/>
      <path class="d" d="M517.32,34.93c-3.93-5.4-9.55-8.11-16.89-8.11-6.63,0-12.29,2.45-16.98,7.33-4.7,4.89-7.04,10.9-7.04,18.05s2.35,13.16,7.04,18.05c4.7,4.89,10.36,7.33,16.98,7.33,7.33,0,12.96-2.73,16.89-8.2v6.95h10.42V8.78h-10.42v26.15ZM512.98,63.3c-2.9,2.89-6.53,4.34-10.91,4.34s-8.01-1.45-10.9-4.34c-2.9-3.02-4.34-6.72-4.34-11.1s1.45-8.11,4.34-11c2.9-2.96,6.53-4.44,10.9-4.44s8.01,1.48,10.91,4.44c2.89,2.89,4.34,6.56,4.34,11s-1.45,8.14-4.34,11.1Z"/>
      <path class="d" d="M560.27,26.82c-7.53,0-13.64,2.45-18.34,7.33-4.76,4.89-7.14,10.9-7.14,18.05s2.41,13.41,7.24,18.24c4.89,4.76,11.23,7.14,19.01,7.14,9.39,0,16.44-3.51,21.13-10.52l-8.59-5.02c-2.83,3.99-6.98,5.98-12.45,5.98-4.05,0-7.45-1-10.18-2.99-2.74-1.99-4.49-4.79-5.26-8.4h38.41c.26-1.61.39-3.06.39-4.34,0-7.08-2.28-13.09-6.85-18.05-4.57-4.95-10.36-7.43-17.37-7.43ZM545.6,48.15c.71-3.67,2.35-6.56,4.92-8.69,2.57-2.12,5.79-3.18,9.65-3.18,3.54,0,6.55,1.03,9.02,3.09,2.48,2.06,4.07,4.99,4.78,8.78h-28.37Z"/>
      <rect class="d" x="591.24" y="5.88" width="10.42" height="70.45"/>
      <path class="d" d="M644.95,56.31c-1-1.83-2.43-3.31-4.29-4.44-1.87-1.12-3.64-1.98-5.31-2.56-1.67-.58-3.64-1.13-5.89-1.64-2.96-.84-5.21-1.72-6.76-2.65-1.54-.93-2.32-2.14-2.32-3.62,0-1.61.66-2.86,1.98-3.76,1.32-.9,3.01-1.35,5.07-1.35,4.44,0,7.46,1.83,9.07,5.5l8.78-4.92c-1.67-3.15-4.07-5.61-7.19-7.38-3.12-1.77-6.68-2.65-10.66-2.65-5.02,0-9.23,1.35-12.64,4.05-3.35,2.7-5.02,6.27-5.02,10.71-.06,2.38.4,4.47,1.4,6.27,1,1.8,2.44,3.25,4.34,4.34,1.9,1.1,3.63,1.93,5.21,2.51,1.58.58,3.52,1.16,5.84,1.74,6.11,1.48,9.17,3.54,9.17,6.18,0,3.6-2.73,5.4-8.2,5.4s-9.1-2.32-10.71-6.95l-8.97,5.21c1.54,3.54,4.02,6.31,7.43,8.3,3.41,1.99,7.49,2.99,12.26,2.99,5.34,0,9.81-1.32,13.41-3.96,3.6-2.64,5.4-6.27,5.4-10.9.06-2.44-.4-4.58-1.4-6.42Z"/>
    </g>
  </g>
</svg>